<svg width="46" height="46" viewBox="0 0 46 46" fill="none" xmlns="http://www.w3.org/2000/svg">
<path d="M8.625 43.125H25.875C26.6373 43.1242 27.3681 42.8211 27.9071 42.2821C28.4461 41.7431 28.7492 41.0123 28.75 40.25V35.9375H25.875V40.25H8.625V5.75H25.875V10.0625H28.75V5.75C28.7492 4.98774 28.4461 4.25691 27.9071 3.71791C27.3681 3.17891 26.6373 2.87576 25.875 2.875H8.625C7.86274 2.87576 7.13191 3.17891 6.59291 3.71791C6.05391 4.25691 5.75076 4.98774 5.75 5.75V40.25C5.75076 41.0123 6.05391 41.7431 6.59291 42.2821C7.13191 42.8211 7.86274 43.1242 8.625 43.125Z" fill="black"/>
<path d="M29.5924 29.5924L34.7473 24.4375H14.375V21.5625H34.7473L29.5924 16.4076L31.625 14.375L40.25 23L31.625 31.625L29.5924 29.5924Z" fill="black"/>
</svg>
