<svg width="64" height="64" viewBox="0 0 64 64" fill="none" xmlns="http://www.w3.org/2000/svg">
<path d="M4.87865 62C4.49954 61.9989 4.12437 61.9232 3.77453 61.7771C3.4247 61.6311 3.10706 61.4175 2.83975 61.1487C2.57245 60.8799 2.36071 60.561 2.21662 60.2104C2.07254 59.8597 1.99894 59.4841 2.00001 59.105V4.895C2.00001 3.29545 3.28865 2 4.87865 2H59.1227C60.7114 2 62 3.29545 62 4.895V59.105C62.0011 59.4841 61.9275 59.8597 61.7834 60.2104C61.6393 60.561 61.4276 60.8799 61.1602 61.1487C60.8929 61.4175 60.5753 61.6311 60.2255 61.7771C59.8756 61.9232 59.5005 61.9989 59.1214 62H4.87728H4.87865Z" stroke="#E5E5E5" stroke-width="4" stroke-linecap="round" stroke-linejoin="round"/>
<path fill-rule="evenodd" clip-rule="evenodd" d="M51.9923 23.6641H45.3541C44.4702 23.6641 43.6226 24.0152 42.9975 24.6402C42.3725 25.2652 42.0214 26.1129 42.0214 26.9968V33.665H51.9923L50.5332 43.6632H42.0214V62H31.0537V43.6632H21.9991V33.6663H30.9378L31.0537 24.1768L31.021 20.7759C31.01 19.6269 31.2268 18.4872 31.6589 17.4226C32.091 16.3579 32.7297 15.3894 33.5383 14.5731C34.3469 13.7568 35.3093 13.1088 36.3698 12.6666C37.4303 12.2244 38.5679 11.9967 39.7169 11.9968H51.9923V23.6641Z" fill="#CCCCCC"/>
</svg>
