<svg width="56" height="43" viewBox="0 0 56 43" fill="none" xmlns="http://www.w3.org/2000/svg">
<path d="M50.75 8.6H42V4.3C42 1.92604 39.6484 0 36.75 0H19.25C16.3516 0 14 1.92604 14 4.3V8.6H5.25C2.35156 8.6 0 10.526 0 12.9V38.7C0 41.074 2.35156 43 5.25 43H50.75C53.6484 43 56 41.074 56 38.7V12.9C56 10.526 53.6484 8.6 50.75 8.6ZM21 5.73333H35V8.6H21V5.73333ZM38.5 27.95C38.5 28.3442 38.1063 28.6667 37.625 28.6667H31.5V33.6833C31.5 34.0775 31.1063 34.4 30.625 34.4H25.375C24.8937 34.4 24.5 34.0775 24.5 33.6833V28.6667H18.375C17.8937 28.6667 17.5 28.3442 17.5 27.95V23.65C17.5 23.2558 17.8937 22.9333 18.375 22.9333H24.5V17.9167C24.5 17.5225 24.8937 17.2 25.375 17.2H30.625C31.1063 17.2 31.5 17.5225 31.5 17.9167V22.9333H37.625C38.1063 22.9333 38.5 23.2558 38.5 23.65V27.95Z" fill="white"/>
</svg>
