<svg width="46" height="46" viewBox="0 0 46 46" fill="none" xmlns="http://www.w3.org/2000/svg">
<path fill-rule="evenodd" clip-rule="evenodd" d="M34.3765 11.8479C34.3765 4.78403 29.4861 0.178284 24.337 0.178284C19.1793 0.178284 14.3981 4.73803 14.3981 11.8479H14.3953C14.4154 16.6147 18.886 25.645 24.3888 25.645C29.8886 25.645 34.3478 16.6147 34.3765 11.8479Z" fill="black"/>
<path fill-rule="evenodd" clip-rule="evenodd" d="M38.8096 31.7429C36.9325 31.7422 35.132 32.4867 33.8037 33.8129C32.4753 35.1391 31.7279 36.9384 31.7256 38.8154C31.7256 40.6935 32.4716 42.4946 33.7996 43.8225C35.1276 45.1505 36.9287 45.8965 38.8067 45.8965C40.6847 45.8965 42.4859 45.1505 43.8138 43.8225C45.1418 42.4946 45.8878 40.6935 45.8878 38.8154C45.8863 36.9391 45.1399 35.1402 43.8126 33.8141C42.4854 32.4879 40.6859 31.7429 38.8096 31.7429ZM40.3506 40.3133V43.125H37.3232V40.3133H34.3677V37.3434H37.3232V34.3937H40.3506V37.3434H43.194V40.3133H40.3506Z" fill="black"/>
<path fill-rule="evenodd" clip-rule="evenodd" d="M27.0192 37.3808C27.0192 33.8129 28.5861 30.613 31.0615 28.4424C32.3869 27.2752 32.3092 27.3787 31.1535 27.9393C27.8242 29.555 23.3162 30.0265 23.3162 30.0265C23.3162 30.0265 14.9557 29.2014 12.4919 25.8894C0.689995 25.8894 0.333496 43.0359 0.333496 43.0359H28.4366C27.5049 41.2966 27.018 39.3539 27.0192 37.3808Z" fill="black"/>
</svg>
